<svg width="24" height="24" fill="none" xmlns="http://www.w3.org/2000/svg"><path d="m23.092 21.6-6.357-5.88c2.66-3.24 2.335-7.92-.843-10.86-3.503-3.24-9.211-3.24-12.779 0-3.502 3.24-3.502 8.52 0 11.82C4.8 18.24 7.07 19.14 9.47 19.14a9.46 9.46 0 0 0 5.384-1.68l6.357 5.88c.26.24.584.36.908.36.324 0 .648-.12.908-.36.584-.54.584-1.26.065-1.74ZM9.535 16.68c-1.686 0-3.308-.6-4.54-1.74-2.53-2.34-2.53-6.06 0-8.4C6.227 5.4 7.913 4.8 9.535 4.8c1.622 0 3.308.6 4.54 1.74 2.53 2.34 2.53 6.06 0 8.4-1.232 1.14-2.853 1.74-4.54 1.74Z" fill="#000"/></svg>