<svg width="24" height="24" viewBox="0 0 24 24" fill="none" xmlns="http://www.w3.org/2000/svg">
<path d="M23.0919 21.6L16.7351 15.72C19.3946 12.48 19.0702 7.8 15.8919 4.86C12.3892 1.62 6.68104 1.62 3.11348 4.86C-0.389225 8.1 -0.389225 13.38 3.11348 16.68C4.79996 18.24 7.07023 19.14 9.47023 19.14C11.4162 19.14 13.2973 18.54 14.854 17.46L21.2108 23.34C21.4702 23.58 21.7946 23.7 22.1189 23.7C22.4432 23.7 22.7675 23.58 23.027 23.34C23.6108 22.8 23.6108 22.08 23.0919 21.6ZM9.5351 16.68C7.84861 16.68 6.22699 16.08 4.99456 14.94C2.46483 12.6 2.46483 8.88 4.99456 6.54C6.22699 5.4 7.91348 4.8 9.5351 4.8C11.1567 4.8 12.8432 5.4 14.0756 6.54C16.6054 8.88 16.6054 12.6 14.0756 14.94C12.8432 16.08 11.2216 16.68 9.5351 16.68Z" fill="black"/>
</svg>
